<svg width="500" height="55" version="1.1" xmlns="http://www.w3.org/2000/svg">
 <path d="m464.66 0.22786h-14.051v54.543h11.454v-21.49l-11.373-18.457h11.373l24.606 39.947h13.321v-15.901h-11.369zm23.969 0v20.304l11.369 18.337v-38.641zm-78.14 0-21.848 54.543h12.182l4.384-11.679h23.228l4.384 11.679h12.589l-21.844-54.543zm-1.7871 33.649 8.1197-21.738 8.2053 21.738zm-31.097-7.8363c5.0361-2.2276 7.7167-6.5304 7.7167-11.062v-0.84534c0-9.3709-7.633-13.906-19.167-13.906h-25.017v54.543h26.804c11.534 0 19.821-5.8372 19.821-15.288v-0.7692c0-5.8372-3.7376-10.677-10.154-12.676zm-24.852-16.671h12.182c5.6844 0 8.365 1.8429 8.365 6.0696v0.76922c0 4.3028-2.3555 6.4543-8.2851 6.4543h-12.262zm22.903 29.731c0 4.0705-3.249 6.5304-8.9334 6.5304h-13.97v-13.906h14.049c5.9296 0 8.8536 2.3036 8.8536 6.5304zm-74.637-38.874-21.848 54.543h12.182l4.3878-11.679h23.228l4.384 11.679h12.589l-21.844-54.543h-13.076zm-1.7871 33.649 8.1236-21.738 8.2053 21.738h-16.325zm-23.217-15.597v-0.92142c0-11.138-8.8536-17.131-20.874-17.131h-25.258v54.543h11.776v-19.359h9.827l13.076 19.359h13.483l-14.376-20.513c7.4715-2.2274 12.348-7.604 12.348-15.977zm-22.095 7.7604h-12.262v-16.442h12.262c5.6844 0 9.7471 2.3037 9.7471 7.7603v0.92142c0 5.3766-4.0627 7.7604-9.7471 7.7604zm-40.776 0c5.0361-2.2276 7.7167-6.5304 7.7167-11.062v-0.84534c0-9.3709-7.633-13.906-19.167-13.906h-25.016v54.543h26.805c11.534 0 19.819-5.8372 19.819-15.288v-0.7692c0-5.8372-3.7357-10.677-10.154-12.676zm-24.852-16.671h12.183c5.6844 0 8.365 1.8429 8.365 6.0696v0.76922c0 4.3028-2.3555 6.4543-8.2851 6.4543h-12.262zm22.903 29.731c0 4.0705-3.249 6.5304-8.9334 6.5304h-13.97v-13.906h14.05c5.9315 0 8.8536 2.3036 8.8536 6.5304zm-71.963-7.5319h26.885v-9.2186h-26.885v-12.828h29.566v-9.2947h-41.426v54.543h41.994v-9.2948h-30.134zm-57.989 23.201h11.856v-21.971h24.856v-9.2188h-24.856v-14.058h27.618v-9.2947h-39.474z"/>
 <path d="m38.33 0.35782-25.085 40.452h-13.245l25.085-40.452h-25.085v54.414h19.201l25.085-40.452h13.245v-13.962zm19.204 54.414v-40.452l-25.085 40.452z" fill="#4ac1e0"/>
</svg>
